HIERARCHY
ROOT Hips
{
  OFFSET 196.326 95.9168 97.7182
  CHANNELS 6 Xposition Yposition Zposition Zrotation Xrotation Yrotation
  JOINT LeftUpLeg
  {
    OFFSET 8.64259 1.95398 -2.38835
    CHANNELS 3 Zrotation Xrotation Yrotation
    JOINT LeftLeg
    {
      OFFSET 43.7702 0 0
      CHANNELS 3 Zrotation Xrotation Yrotation
      JOINT LeftFoot
      {
        OFFSET 40.6238 0 0
        CHANNELS 3 Zrotation Xrotation Yrotation
        JOINT LeftToeBase
        {
          OFFSET 12.7242 0 0
          CHANNELS 3 Zrotation Xrotation Yrotation
          End Site
          {
            OFFSET 0 0 0
          }
        }
      }
    }
  }
  JOINT RightUpLeg
  {
    OFFSET -8.2249 1.95398 -2.59336
    CHANNELS 3 Zrotation Xrotation Yrotation
    JOINT RightLeg
    {
      OFFSET 43.5653 0 0
      CHANNELS 3 Zrotation Xrotation Yrotation
      JOINT RightFoot
      {
        OFFSET 40.6238 0 0
        CHANNELS 3 Zrotation Xrotation Yrotation
        JOINT RightToeBase
        {
          OFFSET 12.7242 0 0
          CHANNELS 3 Zrotation Xrotation Yrotation
          End Site
          {
            OFFSET 0 0 0
          }
        }
      }
    }
  }
  JOINT Spine
  {
    OFFSET 0.165834 0.87714 6.61349
    CHANNELS 3 Zrotation Xrotation Yrotation
    JOINT Spine1
    {
      OFFSET 7.38963 1.71661e-005 0
      CHANNELS 3 Zrotation Xrotation Yrotation
      JOINT Spine2
      {
        OFFSET 11.9445 1.14441e-005 0
        CHANNELS 3 Zrotation Xrotation Yrotation
        JOINT Spine3
        {
          OFFSET 14.7254 4.19617e-005 0
          CHANNELS 3 Zrotation Xrotation Yrotation
          JOINT Spine4
          {
            OFFSET 10.9679 0 0
            CHANNELS 3 Zrotation Xrotation Yrotation
            JOINT RightShoulder
            {
              OFFSET 2.46616 -1.6653 3.69651
              CHANNELS 3 Zrotation Xrotation Yrotation
              JOINT RightArm
              {
                OFFSET 13.0012 0 0
                CHANNELS 3 Zrotation Xrotation Yrotation
                JOINT RightForeArm
                {
                  OFFSET 28.7848 1.52588e-005 0
                  CHANNELS 3 Zrotation Xrotation Yrotation
                  JOINT RightHand
                  {
                    OFFSET 26.5688 1.52588e-005 0
                    CHANNELS 3 Zrotation Xrotation Yrotation
                    End Site
                    {
                      OFFSET 0 0 0
                    }
                  }
                }
              }
            }
            JOINT LeftShoulder
            {
              OFFSET 2.38034 -1.29275 -3.75231
              CHANNELS 3 Zrotation Xrotation Yrotation
              JOINT LeftArm
              {
                OFFSET 16.3182 6.10351e-005 0
                CHANNELS 3 Zrotation Xrotation Yrotation
                JOINT LeftForeArm
                {
                  OFFSET 27.0901 0 0
                  CHANNELS 3 Zrotation Xrotation Yrotation
                  JOINT LeftHand
                  {
                    OFFSET 24.5451 1.52588e-005 0
                    CHANNELS 3 Zrotation Xrotation Yrotation
                    End Site
                    {
                      OFFSET 0 0 0
                    }
                  }
                }
              }
            }
            JOINT Neck
            {
              OFFSET 5.0226 -0.0266342 0
              CHANNELS 3 Zrotation Xrotation Yrotation
              JOINT Head
              {
                OFFSET 6.69363 2.86102e-005 0
                CHANNELS 3 Zrotation Xrotation Yrotation
                End Site
                {
                  OFFSET 0 0 0
                }
              }
            }
          }
        }
      }
    }
  }
}
MOTION
Frames:	19
Frame Time:	0.0416667
-294.773 77.9035 -307.759 33.2584 -10.4973 -76.4473 1.17361 41.2043 -98.823 -48.9985 21.9666 1.70118 37.9968 -34.0179 40.4765 171.061 6.54891 -96.3584 90.3242 64.333 -171.651 -0.293185 -49.475 4.81069 -18.4318 21.6024 52.6948 128.583 -3.3138 -10.601 0.386055 -5.99138 -81.0554 38.0842 6.81008 16.3986 26.3316 7.51589 16.0942 4.60393 1.65303 17.6457 24.6166 1.65304 17.6457 134.884 -64.9304 -39.9683 92.1606 8.18742 17.585 -64.8207 5.23647 -0.0311744 6.23996 -4.43323 -46.2542 99.2381 51.2322 -81.7735 -13.4996 -22.9145 176.559 -51.4968 -7.36345 -2.19825 -1.0966 -0.745517 -58.7195 -5.99136 -33.5379 25.943 36.8742 -39.7663 -10.4352 
-294.937 78.0161 -307.903 32.8432 -10.4514 -76.428 1.08461 41.3995 -98.8348 -49.1487 20.3136 1.72454 38.4615 -33.1549 39.6722 171.049 5.22012 -96.8956 91.2465 64.3497 -172.514 -0.122157 -50.6721 4.9726 -18.1807 21.9482 53.1951 128.541 -4.28059 -11.5267 0.4218 -5.96742 -81.0601 38.0353 6.86756 16.3612 26.2834 7.57174 16.0543 4.55106 1.71879 17.6267 24.5637 1.71879 17.6267 135.043 -64.8866 -39.7529 92.236 8.26501 17.6743 -65.0177 4.99982 -0.0311629 6.30785 -4.45998 -45.9769 100.059 51.1433 -81.9668 -14.0513 -20.6702 175.956 -51.5662 -5.66281 -0.527492 -1.40358 -0.590255 -58.9658 -6.36408 -33.6871 25.5614 37.4314 -39.7147 -9.92796 
-295.406 78.346 -308.316 31.6529 -10.3235 -76.3671 0.821291 41.9602 -98.8496 -49.5734 15.7999 1.77554 39.6299 -30.9311 37.0688 170.511 1.01445 -98.5626 93.8907 64.3698 -174.985 0.456351 -54.2226 5.52383 -17.3171 23.0293 54.5655 128.314 -7.11867 -14.2677 0.523715 -5.89882 -81.0764 37.8961 7.02971 16.2496 26.1465 7.72904 15.9356 4.40024 1.90603 17.5674 24.4129 1.90604 17.5674 135.475 -64.7538 -39.161 92.4443 8.49358 17.9377 -65.5893 4.33687 -0.0311334 6.51594 -4.53795 -45.1829 102.204 50.9135 -82.4631 -15.279 -13.4036 174.613 -51.4598 5.99404 -0.0238559 -2.28795 -0.133381 -59.4675 -7.41903 -34.1009 24.4716 39.0058 -39.5474 -8.48466 
-296.141 78.886 -308.964 29.7807 -10.1305 -76.2532 0.393977 42.8495 -98.796 -50.2437 9.45396 1.79829 40.9775 -28.2377 32.1219 166.853 -7.32993 -102.408 98.0547 64.3205 -178.868 1.74588 -60.1415 6.75219 -15.4831 25.0072 56.4358 127.596 -11.7715 -18.8787 0.682387 -5.7919 -81.109 37.6806 7.27813 16.063 25.9348 7.96933 15.7382 4.16537 2.19732 17.4619 24.178 2.19733 17.4619 136.1 -64.5268 -38.2883 92.7552 8.86899 18.3701 -66.5094 3.35606 -0.0310976 6.88633 -4.66476 -43.9371 105.119 50.6098 -83.117 -16.3407 0.588571 173.534 -47.2753 25.9989 -0.0704909 -3.69836 0.604557 -59.5239 -9.04418 -34.7158 22.77 41.4124 -39.2312 -6.24901 
-297.098 79.6321 -309.813 27.3267 -9.89055 -76.0706 -0.162886 44.0348 -98.5487 -51.1827 2.65367 1.70427 41.8001 -26.1805 24.0689 142.867 -24.4937 -118.458 103.486 64.1079 176.092 4.76784 -68.3994 9.65846 -12.1008 28.0519 58.0582 125.816 -18.1662 -25.6364 0.887438 -5.65336 -81.1637 37.4044 7.59206 15.8007 25.6636 8.27185 15.4622 3.86172 2.57304 17.3036 23.8744 2.57306 17.3036 136.837 -64.2025 -37.2324 93.1354 9.38885 18.9677 -67.7546 2.18168 -0.0310668 7.44643 -4.83536 -42.3145 108.224 50.301 -83.79 -16.634 22.7085 173.739 -34.8288 45.9514 -0.0707613 -5.60576 1.54565 -58.0419 -11.1177 -35.4651 20.5585 44.4397 -38.7278 -3.38387 
-298.218 80.4852 -310.818 24.3928 -9.62231 -75.8047 -0.777254 45.4008 -97.9368 -52.6776 -3.20533 1.39993 41.2721 -25.6378 11.6403 34.7052 7.25414 -165.671 109.94 63.6289 170.156 14.7532 -78.5762 19.4434 -6.41706 32.0813 58.1523 121.939 -25.9941 -35.2256 1.12742 -5.48976 -81.2446 37.0823 7.95033 15.4645 25.3477 8.61552 15.1102 3.5047 3.0125 17.0883 23.5173 3.01248 17.0883 137.615 -63.7824 -36.0779 93.55 10.05 19.727 -69.2999 0.915668 -0.0310483 8.21224 -5.03922 -40.3995 111.002 50.0442 -84.3749 -16.763 50.5024 176.162 -16.0111 58.1861 -0.0451433 -7.73425 2.38103 -53.9423 -13.522 -36.2895 17.9324 47.8775 -38.0074 -0.0552068 
-299.396 80.9041 -311.86 21.0836 -9.34537 -75.4454 -1.33948 46.5131 -96.7734 -55.7641 -6.79926 0.822983 38.8394 -26.7284 -7.30201 -92.2463 8.8539 -114.309 117.352 62.7305 163.466 102.221 -85.7643 106.606 2.41943 36.2783 54.812 114.212 -34.3202 -49.001 1.39093 -5.30746 -81.3542 36.7284 8.33222 15.0605 25.001 8.97988 14.6893 3.10905 3.49405 16.8161 23.1217 3.49405 16.8161 138.383 -63.2743 -34.8898 93.9631 10.8466 20.6431 -71.1139 -0.384813 -0.031045 9.18044 -5.26056 -38.2851 113.059 49.8788 -84.8006 -22.5499 76.217 -174.158 0.878405 60.4668 0.00266784 -8.14095 2.12801 -46.4954 -16.1493 -37.1426 14.9745 51.531 -37.0575 3.57713 
-300.657 81.3307 -313.011 17.5066 -9.08014 -74.9891 -1.45685 49.0852 -95.2559 -56.8948 -9.51962 -0.0404837 32.8537 -25.6391 -34.255 -102.32 -28.9631 -69.8248 124.942 61.35 156.752 157.987 -75.7994 161.974 14.2993 38.8902 47.0524 100.398 -40.9475 -68.7393 1.66596 -5.11249 -81.4913 36.355 8.71847 14.6005 24.6354 9.34616 14.2121 2.68857 3.99602 16.4926 22.7012 3.99603 16.4926 139.11 -62.6908 -33.7101 94.3386 11.7678 21.7096 -73.1567 -1.73039 -0.0310585 10.3261 -5.48067 -36.0683 114.157 49.8245 -85.0299 -150.546 84.6687 -41.7515 9.77959 53.9392 0.0251923 -2.9002 0.0781404 -36.6182 -18.9068 -37.9914 11.7509 55.2351 -35.8854 7.36884 
-301.96 81.7901 -314.242 13.7652 -8.84577 -74.4404 -1.79399 53.5414 -93.6727 -54.5711 -11.6664 -1.15448 27.9543 -20.9682 -60.3801 7.95041 -71.3425 48.3731 132.167 59.4817 150.526 165.501 -64.7624 169.063 27.0931 38.1442 36.282 80.6466 -42.1431 -93.7495 1.94201 -4.90964 -81.6522 35.9715 9.09335 14.1001 24.26 9.69932 13.6948 2.25457 4.4989 16.1283 22.2672 4.49889 16.1283 139.782 -62.0453 -32.5612 94.6411 12.7968 22.9193 -75.3823 -3.23289 -0.0310938 11.607 -5.68231 -33.8367 114.216 49.8858 -85.052 -169.973 75.9546 -18.1518 11.6546 44.9681 0.024072 6.6732 -1.94738 -27.5261 -21.7228 -38.8148 8.307 58.8663 -34.5143 11.2026 
-303.271 82.261 -315.518 9.95135 -8.65806 -73.8111 -3.34139 58.5705 -91.8658 -50.754 -13.8713 -2.48627 26.4933 -15.2398 -78.0793 36.7684 -27.5917 91.4221 138.651 57.2065 145.138 168.112 -55.5305 171.301 37.4933 33.9638 25.7907 61.1199 -35.3316 -117.443 2.2103 -4.70266 -81.8313 35.5844 9.44533 13.5762 23.881 10.0285 13.155 1.81556 4.98686 15.7355 21.8282 4.98687 15.7355 140.392 -61.3499 -31.455 94.8354 13.9112 24.2665 -77.7416 -5.14452 -0.0311698 12.9734 -5.85245 -31.6578 113.245 50.0619 -84.8664 -168.773 72.5459 -15.6367 10.1029 37.7434 0.0185858 15.2996 -2.53912 -19.9767 -24.5446 -39.5984 4.67364 62.3428 -32.9763 14.9905 
-304.573 82.7255 -316.815 6.14603 -8.52945 -73.1187 -6.40696 63.2363 -89.3074 -47.3827 -17.1777 -4.04474 26.7891 -8.9786 -88.3101 35.7602 -1.99639 102.62 144.241 54.666 140.73 169.238 -48.607 172.169 44.047 27.9888 17.6101 47.1801 -22.0266 -134.121 2.46421 -4.49437 -82.0228 35.1978 9.76642 13.0447 23.5022 10.3265 12.6089 1.37741 5.4477 15.3273 21.3901 5.4477 15.3273 140.934 -60.6131 -30.4042 94.8863 15.0822 25.748 -80.1783 -7.96066 -0.0313464 14.3733 -5.98235 -29.5779 111.269 50.3537 -84.4684 -164.505 72.5004 -16.5852 7.58408 31.8833 0.377895 21.5887 -1.90606 -12.8975 -27.3301 -40.331 0.876873 65.6154 -31.3079 18.667 
-305.852 83.171 -318.109 2.4193 -8.46874 -72.3861 -11.186 67.5727 -85.4246 -44.3241 -18.9634 -5.77801 27.4475 -4.41612 -93.393 31.3828 19.7865 109.521 148.968 52.0087 137.284 169.684 -43.8774 172.481 47.497 21.9942 11.825 38.2592 -5.51644 -144.007 2.69903 -4.28663 -82.2208 34.8144 10.0517 12.5196 23.1261 10.589 12.0707 0.94428 5.87268 14.9149 20.9569 5.87268 14.915 141.393 -59.8382 -29.4295 94.7581 16.2737 27.3641 -82.6101 -12.6993 -0.0318228 15.7558 -6.06623 -27.6212 108.279 50.7675 -83.838 -158.165 73.929 -19.8461 7.7958 26.4487 -3.89641 26.0839 -0.429253 -5.70674 -30.045 -41.0025 -3.05555 68.6599 -29.5463 22.1811 
-307.094 83.591 -319.377 -1.17405 -8.48035 -71.6386 -18.3911 71.845 -79.3512 -41.024 -20.9088 -7.67254 27.7514 0.307841 -95.4803 25.8685 34.6652 115.963 152.944 49.3473 134.679 169.764 -40.9128 172.525 49.1235 16.9344 7.84537 32.0565 11.6543 -149.099 2.91197 -4.08087 -82.4211 34.4358 10.2987 12.0105 22.7542 10.8138 11.5502 0.518838 6.25666 14.5068 20.5315 6.25667 14.5069 141.738 -59.0214 -28.5651 94.4176 17.4421 29.118 -84.8784 -21.456 -0.0333559 17.0739 -6.09982 -25.7907 104.201 51.3175 -82.9277 -149.881 75.4446 -25.1383 9.93951 21.3789 -12.0903 29.265 1.63757 1.72406 -32.6614 -41.6025 -7.08953 71.4713 -27.7267 25.4928 
-308.281 83.9816 -320.6 -4.59501 -8.56546 -70.902 -30.1438 76.1777 -68.9912 -36.7137 -22.7395 -9.55775 27.3243 4.95267 -95.7234 19.5853 46.3745 121.522 156.281 46.7422 132.795 169.672 -39.235 172.482 49.869 13.0598 5.12712 26.7893 27.8308 -150.758 3.10169 -3.87818 -82.6214 34.0633 10.5062 11.5219 22.3878 11 11.052 0.102946 6.59711 14.1068 20.1156 6.59712 14.1068 141.928 -58.1514 -27.8606 93.8371 18.5379 31.0143 -86.6415 -37.7636 -0.0392695 18.2869 -6.07902 -24.0734 98.8631 52.0249 -81.6487 -140.672 76.0895 -31.3293 12.1862 17.0868 -20.0251 31.369 4.08717 9.34639 -35.1548 -42.1204 -11.1813 74.0566 -25.8807 28.5688 
-309.394 84.3624 -321.756 -7.81724 -8.72281 -70.2026 -53.3337 80.3151 -47.6692 -30.3035 -24.755 -10.9807 25.6758 9.50903 -94.7223 12.3851 55.6744 127.404 159.288 44.1059 131.127 169.582 -38.3864 171.871 50.2708 10.542 3.45152 21.2234 41.9854 -149.555 3.26758 -3.67959 -82.8218 33.6987 10.6725 11.0534 22.0286 11.1459 10.5757 -0.301559 6.89266 13.7136 19.7111 6.89266 13.7136 141.902 -57.21 -27.3833 92.9955 19.506 33.0564 -86.9707 -63.8467 0.227209 19.3576 -5.999 -22.4457 91.9649 52.9178 -79.8434 -132.96 75.2689 -35.9082 14.6751 13.6311 -27.5022 32.5464 6.70845 17.0192 -37.4972 -42.5449 -15.2709 76.4283 -24.037 31.3769 
-310.457 84.4402 -322.87 -10.8255 -8.94919 -69.5674 -97.5572 81.8469 -6.06409 -21.7148 -26.9211 -11.2112 22.8907 13.7197 -93.0179 3.81317 63.0795 134.441 162.21 41.2662 129.149 169.182 -37.9183 169.732 50.2501 9.47371 2.77473 14.385 53.5765 -145.521 3.40877 -3.48623 -83.0254 33.3448 10.7939 10.5986 21.6793 11.2475 10.1152 -0.692133 7.14141 13.3201 19.3205 7.14142 13.3201 141.58 -56.1716 -27.2267 91.8796 20.2864 35.2441 -91.9569 -74.6978 -5.88262 20.2504 -5.85391 -20.8752 82.9914 54.0289 -77.2246 -128.703 72.6254 -36.8095 17.3991 10.9911 -34.2999 32.9569 9.29629 24.539 -39.6507 -42.8644 -19.2728 78.6003 -22.2219 33.8794 
-311.485 84.2405 -323.965 -13.6145 -9.24066 -69.0245 -135.742 78.7478 28.6341 -11.5723 -28.872 -9.64001 19.5065 17.3399 -91.2686 -6.93146 68.8759 143.633 164.4 38.6238 127.703 167.961 -37.5757 167.342 49.7443 8.93843 2.47064 5.39053 62.4483 -138.368 3.52298 -3.30048 -83.2394 33.0064 10.8609 10.1444 21.3451 11.2947 9.65779 -1.06426 7.33828 12.911 18.9484 7.33829 12.911 140.859 -55.006 -27.5175 90.4853 20.8207 37.5736 -100.029 -74.0501 -15.9279 20.9312 -5.63732 -19.3256 71.0869 55.372 -73.2594 -127.52 67.787 -34.2284 20.2484 9.12188 -40.1796 32.7941 11.6901 31.6911 -41.5605 -43.0661 -23.0643 80.5823 -20.4604 36.0284 
-312.467 83.9184 -325.033 -16.1873 -9.59379 -68.603 -140.285 76.1319 30.6973 -11.0692 -28.6522 -9.19113 21.236 19.5201 -90.9681 -20.8987 73.1606 156.124 165.873 36.2298 127.025 166.509 -37.288 165.716 49.1022 8.49237 2.20843 -6.3648 68.6883 -127.849 3.60412 -3.12531 -83.4761 32.692 10.8547 9.67029 21.0341 11.2679 9.18373 -1.40999 7.47138 12.461 18.6027 7.47139 12.461 139.611 -53.6845 -28.4243 88.8158 21.0608 40.0391 -107.015 -73.4799 -25.4686 21.3663 -5.34319 -17.7592 54.8653 56.8512 -66.9742 -127.58 60.219 -29.6494 23.1052 7.98857 -44.9566 32.2728 13.8024 38.2966 -43.1474 -43.1345 -26.4734 82.3771 -18.7778 37.7587 
-313.397 83.5056 -326.071 -18.5533 -10.006 -68.3348 -143.287 73.6963 31.2414 -10.6603 -28.3307 -8.60264 23.3523 21.5622 -90.9648 -38.7866 75.8727 172.644 166.894 33.9143 126.916 165.427 -37.0255 165.023 48.5673 8.09885 1.93107 -20.527 72.5587 -114.534 3.63926 -2.96741 -83.7557 32.4165 10.7379 9.14466 20.7612 11.1284 8.66319 -1.71455 7.51433 11.9289 18.2981 7.51432 11.9289 137.672 -52.1892 -30.1975 86.8753 20.9771 42.64 -113 -72.8597 -34.6868 21.5216 -4.96693 -16.1381 32.0764 57.9798 -56.6433 -127.107 49.2186 -24.1113 25.8984 7.5833 -48.5048 31.6063 15.6212 44.2281 -44.2937 -43.0413 -29.2421 83.9741 -17.2022 38.9674 
